<svg width="52" height="53" viewBox="0 0 52 53" fill="none" xmlns="http://www.w3.org/2000/svg">
<path d="M49.5625 6.75H2.4375C2.15571 6.75 1.88546 6.86194 1.6862 7.0612C1.48694 7.26046 1.375 7.53071 1.375 7.8125V41.9375C1.375 42.2193 1.48694 42.4895 1.6862 42.6888C1.88546 42.8881 2.15571 43 2.4375 43H16.4008L15.242 46.4765C15.1887 46.6362 15.1742 46.8063 15.1996 46.9727C15.225 47.1392 15.2896 47.2972 15.388 47.4338C15.4865 47.5704 15.616 47.6816 15.7658 47.7583C15.9157 47.835 16.0817 47.875 16.25 47.875H35.75C35.9183 47.875 36.0843 47.835 36.2342 47.7583C36.384 47.6816 36.5135 47.5704 36.612 47.4338C36.7104 47.2972 36.775 47.1392 36.8004 46.9727C36.8258 46.8063 36.8113 46.6362 36.758 46.4765L35.5992 43H49.5625C49.8443 43 50.1145 42.8881 50.3138 42.6888C50.5131 42.4895 50.625 42.2193 50.625 41.9375V7.8125C50.625 7.53071 50.5131 7.26046 50.3138 7.0612C50.1145 6.86194 49.8443 6.75 49.5625 6.75ZM33.3591 43L34.2758 45.75H17.7242L18.6408 43H33.3591ZM48.5 40.875H3.5V36.5H48.5V40.875ZM48.5 34.375H3.5V8.875H48.5V34.375Z" fill="#191919" stroke="#191919" stroke-width="0.5"/>
<path d="M31.875 25.6875V25.6872C31.8741 24.8485 31.6289 24.0282 31.1694 23.3266C30.7401 22.671 30.1411 22.1455 29.4375 21.8052V15.9375V15.9372C29.4367 15.2248 29.1533 14.5418 28.6495 14.038C28.1457 13.5342 27.4627 13.2508 26.7503 13.25H26.75L13.75 13.25L13.7497 13.25C13.0373 13.2508 12.3543 13.5342 11.8505 14.038C11.3467 14.5418 11.0633 15.2248 11.0625 15.9372V15.9375V21.8052C10.3589 22.1455 9.75987 22.671 9.33056 23.3266C8.87109 24.0282 8.62592 24.8485 8.625 25.6872V25.6875V30.5625C8.625 30.8443 8.73694 31.1145 8.9362 31.3138C9.13546 31.5131 9.40571 31.625 9.6875 31.625H30.8125C31.0943 31.625 31.3645 31.5131 31.5638 31.3138C31.7631 31.1145 31.875 30.8443 31.875 30.5625V25.6875ZM27.3125 15.9378V21.375H25.375V20.8125V20.8122C25.3742 20.0998 25.0908 19.4167 24.587 18.913C24.0833 18.4092 23.4002 18.1258 22.6878 18.125H22.6875H17.8125H17.8122C17.0998 18.1258 16.4167 18.4092 15.913 18.913C15.4092 19.4167 15.1258 20.0998 15.125 20.8122V20.8125V21.375H13.1875V15.9378C13.1877 15.7886 13.247 15.6455 13.3525 15.54C13.458 15.4345 13.601 15.3752 13.7502 15.375C13.7502 15.375 13.7502 15.375 13.7503 15.375H26.7497C26.7498 15.375 26.7498 15.375 26.7498 15.375C26.899 15.3752 27.042 15.4345 27.1475 15.54C27.253 15.6455 27.3123 15.7886 27.3125 15.9378ZM23.25 20.8128V21.375H17.25V20.8128C17.2502 20.6636 17.3095 20.5205 17.415 20.415C17.5205 20.3095 17.6636 20.2502 17.8128 20.25H22.6872C22.8364 20.2502 22.9795 20.3095 23.085 20.415C23.1905 20.5205 23.2498 20.6636 23.25 20.8128ZM10.75 25.6877C10.7507 25.1077 10.9814 24.5517 11.3915 24.1415C11.8017 23.7314 12.3578 23.5007 12.9378 23.5H27.5622C28.1422 23.5007 28.6983 23.7314 29.1085 24.1415C29.5186 24.5517 29.7493 25.1078 29.75 25.6878V26.25H10.75L10.75 25.6878C10.75 25.6878 10.75 25.6877 10.75 25.6877ZM10.75 28.375H29.75V29.5H10.75V28.375Z" fill="#191919" stroke="#191919" stroke-width="0.5"/>
<path d="M40.5638 31.3138C40.3645 31.5131 40.0943 31.625 39.8125 31.625C39.5307 31.625 39.2605 31.5131 39.0612 31.3138C38.8619 31.1145 38.75 30.8443 38.75 30.5625V27.3125C38.75 27.0307 38.8619 26.7605 39.0612 26.5612C39.2605 26.3619 39.5307 26.25 39.8125 26.25H43.0625C43.3443 26.25 43.6145 26.3619 43.8138 26.5612C44.0131 26.7605 44.125 27.0307 44.125 27.3125C44.125 27.5943 44.0131 27.8645 43.8138 28.0638C43.6145 28.2631 43.3443 28.375 43.0625 28.375H42.3776L43.8138 29.8112C44.0131 30.0104 44.125 30.2807 44.125 30.5625C44.125 30.8443 44.0131 31.1146 43.8138 31.3138C43.6146 31.5131 43.3443 31.625 43.0625 31.625C42.7807 31.625 42.5104 31.5131 42.3112 31.3138M40.5638 31.3138L42.0241 28.375L43.637 29.988C43.7894 30.1403 43.875 30.347 43.875 30.5625C43.875 30.778 43.7894 30.9847 43.637 31.137C43.4847 31.2894 43.278 31.375 43.0625 31.375C42.847 31.375 42.6403 31.2894 42.488 31.137L40.875 29.5242V29.8777M40.5638 31.3138C40.7631 31.1145 40.875 30.8443 40.875 30.5625V29.8777M40.5638 31.3138L40.625 29.6277L40.875 29.8777M42.3112 31.3138L42.4834 31.1416L42.3112 31.3138L42.3112 31.3138ZM42.3112 31.3138L40.875 29.8777" fill="#191919" stroke="#191919" stroke-width="0.5"/>
</svg>
