<svg width="51" height="52" viewBox="0 0 51 52" fill="none" xmlns="http://www.w3.org/2000/svg">
<path d="M32.0597 36.9349L32.0577 36.9279L32.0552 36.9211C32.0321 36.856 32.0138 36.7901 32.0007 36.7238L32.0004 36.7225C31.9763 36.6038 31.9764 36.4818 32.0004 36.3636L32.0007 36.362C32.0138 36.2955 32.0321 36.2297 32.0551 36.1652L32.0576 36.1582L32.0597 36.1511C32.0618 36.1439 32.0643 36.1349 32.0666 36.1245C32.2362 35.6931 32.6525 35.4083 33.1174 35.4083C33.5823 35.4083 33.9987 35.6931 34.1683 36.1245C34.1706 36.1349 34.1731 36.1439 34.1752 36.1511L34.1773 36.1582L34.1798 36.1652C34.2028 36.2297 34.2211 36.2955 34.2341 36.362L34.2345 36.3636C34.2585 36.4818 34.2586 36.6038 34.2344 36.7225L34.2342 36.7238C34.2211 36.7901 34.2028 36.856 34.1796 36.9211L34.1772 36.9279L34.1752 36.9349C34.1731 36.9421 34.1706 36.9511 34.1683 36.9615C33.9987 37.3929 33.5823 37.6777 33.1174 37.6777C32.6525 37.6777 32.2362 37.3929 32.0666 36.9615C32.0643 36.9511 32.0618 36.9421 32.0597 36.9349ZM34.4152 36.0811C34.4422 36.1569 34.4639 36.2346 34.4794 36.3137L34.4152 36.0811ZM45.5824 25.2151H34.0599V15.0776C34.0599 14.5571 33.6379 14.1351 33.1174 14.1351H27.1341C27.069 9.55794 23.5814 5.8252 19.2675 5.8252C14.9536 5.8252 11.4661 9.55794 11.401 14.1351H5.41759C4.89709 14.1351 4.4751 14.5571 4.4751 15.0776V46.9325C4.4751 47.453 4.89709 47.875 5.41759 47.875H45.5824C46.1029 47.875 46.5249 47.453 46.5249 46.9325V26.1576C46.5249 25.6371 46.1029 25.2151 45.5824 25.2151ZM13.2862 14.1351C13.3499 10.5603 16.029 7.71019 19.2675 7.71019C22.5061 7.71019 25.1851 10.5603 25.2488 14.1351H13.2862ZM19.71 26.1576V45.99H6.36009V16.0201H11.4001V17.8476C11.4001 18.3681 11.8221 18.7901 12.3426 18.7901C12.8631 18.7901 13.2851 18.3681 13.2851 17.8476V16.0201H25.25V17.8476C25.25 18.3681 25.672 18.7901 26.1925 18.7901C26.713 18.7901 27.135 18.3681 27.135 17.8476V16.0201H32.1749V25.2151H20.6525C20.132 25.2151 19.71 25.6371 19.71 26.1576ZM28.9625 37.4875H29.6762C29.1741 38.0132 28.747 38.3892 28.4013 38.6432C28.1856 38.8017 28.0055 38.9098 27.8618 38.9773C27.7137 39.0469 27.6219 39.065 27.5775 39.065C27.0138 39.065 26.5691 38.8356 26.258 38.4209C25.9411 37.9983 25.75 37.3643 25.75 36.545C25.75 35.7257 25.9411 35.0918 26.258 34.6692C26.5691 34.2544 27.0138 34.025 27.5775 34.025C27.6219 34.025 27.7137 34.0432 27.8618 34.1128C28.0055 34.1803 28.1856 34.2884 28.4013 34.4468C28.747 34.7008 29.1741 35.0769 29.6762 35.6025H28.9625C28.442 35.6025 28.02 36.0245 28.02 36.545C28.02 37.0655 28.442 37.4875 28.9625 37.4875ZM27.5775 32.1401C26.7318 32.1401 25.8797 32.4299 25.2041 33.0428C24.5681 33.6198 24.1018 34.4709 23.9358 35.6025H21.595V27.1001H32.1749V33.6865C31.7664 33.8213 31.3918 34.0422 31.0762 34.3337C30.4307 33.6536 29.829 33.1264 29.2737 32.76C28.6701 32.3618 28.101 32.1401 27.5775 32.1401ZM21.595 45.99V37.4875H23.9358C24.1018 38.6192 24.5681 39.4702 25.2041 40.0472C25.8797 40.6601 26.7318 40.95 27.5775 40.95C28.101 40.95 28.6701 40.7283 29.2737 40.33C29.829 39.9636 30.4307 39.4364 31.0762 38.7563C31.3918 39.0479 31.7664 39.2688 32.1749 39.4035V45.99H21.595ZM44.6399 45.99H34.0599V39.4035C34.4685 39.2688 34.8431 39.0479 35.1587 38.7563C35.8042 39.4364 36.4059 39.9636 36.9612 40.33C37.5648 40.7283 38.1339 40.95 38.6574 40.95C39.503 40.95 40.3552 40.6601 41.0308 40.0472C41.6668 39.4702 42.1331 38.6192 42.2991 37.4875H44.6399V45.99ZM37.2724 35.6025H36.5587C37.0608 35.0769 37.4878 34.7008 37.8336 34.4468C38.0492 34.2884 38.2294 34.1803 38.3731 34.1128C38.5211 34.0432 38.613 34.025 38.6574 34.025C39.2211 34.025 39.6658 34.2544 39.9768 34.6692C40.2938 35.0918 40.4849 35.7257 40.4849 36.545C40.4849 37.3643 40.2938 37.9983 39.9768 38.4209C39.6658 38.8356 39.2211 39.065 38.6574 39.065C38.613 39.065 38.5211 39.0469 38.3731 38.9773C38.2294 38.9098 38.0492 38.8017 37.8336 38.6432C37.4878 38.3892 37.0608 38.0132 36.5587 37.4875H37.2724C37.7929 37.4875 38.2149 37.0655 38.2149 36.545C38.2149 36.0245 37.7929 35.6025 37.2724 35.6025ZM44.6399 35.6025H42.2991C42.1331 34.4709 41.6668 33.6198 41.0308 33.0428C40.3552 32.4299 39.503 32.1401 38.6574 32.1401C38.1339 32.1401 37.5648 32.3618 36.9612 32.76C36.4059 33.1264 35.8042 33.6536 35.1587 34.3337C34.8431 34.0422 34.4685 33.8213 34.0599 33.6865V27.1001H44.6399V35.6025Z" fill="#696A6B" stroke="#191919" stroke-width="0.5"/>
</svg>
