<svg width="41" height="41" viewBox="0 0 41 41" fill="none" xmlns="http://www.w3.org/2000/svg">
<path fill-rule="evenodd" clip-rule="evenodd" d="M11.0063 26.7C11.0965 26.5797 11.2135 26.482 11.348 26.4148C11.4825 26.3475 11.6309 26.3125 11.7813 26.3125H16.625C16.8819 26.3125 17.1283 26.4146 17.31 26.5962C17.4917 26.7779 17.5938 27.0243 17.5938 27.2812C17.5938 27.5382 17.4917 27.7846 17.31 27.9663C17.1283 28.1479 16.8819 28.25 16.625 28.25H12.2656L7.90625 34.0625H33.0938L28.7344 28.25H24.375C24.1181 28.25 23.8717 28.1479 23.69 27.9663C23.5083 27.7846 23.4062 27.5382 23.4062 27.2812C23.4062 27.0243 23.5083 26.7779 23.69 26.5962C23.8717 26.4146 24.1181 26.3125 24.375 26.3125H29.2188C29.3691 26.3125 29.5175 26.3475 29.652 26.4148C29.7865 26.482 29.9035 26.5797 29.9937 26.7L35.8062 34.45C35.9142 34.5939 35.9799 34.7651 35.9961 34.9443C36.0122 35.1234 35.9782 35.3036 35.8977 35.4645C35.8173 35.6254 35.6936 35.7607 35.5406 35.8553C35.3875 35.9499 35.2112 36 35.0312 36H5.96875C5.78884 36 5.61249 35.9499 5.45945 35.8553C5.30641 35.7607 5.18273 35.6254 5.10227 35.4645C5.02182 35.3036 4.98776 35.1234 5.00391 34.9443C5.02007 34.7651 5.08581 34.5939 5.19375 34.45L11.0063 26.7Z" fill="#BABABA"/>
<path fill-rule="evenodd" clip-rule="evenodd" d="M20.5 6.93727C19.7367 6.93727 18.9809 7.08762 18.2757 7.37972C17.5704 7.67183 16.9297 8.09997 16.3899 8.63971C15.8502 9.17945 15.4221 9.82022 15.13 10.5254C14.8378 11.2306 14.6875 11.9865 14.6875 12.7498C14.6875 13.5131 14.8378 14.2689 15.13 14.9741C15.4221 15.6793 15.8502 16.3201 16.3899 16.8598C16.9297 17.3996 17.5704 17.8277 18.2757 18.1198C18.9809 18.4119 19.7367 18.5623 20.5 18.5623C22.0416 18.5623 23.52 17.9499 24.6101 16.8598C25.7001 15.7698 26.3125 14.2913 26.3125 12.7498C26.3125 11.2082 25.7001 9.72977 24.6101 8.63971C23.52 7.54966 22.0416 6.93727 20.5 6.93727ZM12.75 12.7498C12.7501 11.2583 13.1806 9.79861 13.9898 8.54577C14.799 7.29292 15.9525 6.30017 17.3119 5.68663C18.6712 5.07309 20.1788 4.86483 21.6536 5.08683C23.1284 5.30884 24.5079 5.95169 25.6264 6.93823C26.7449 7.92478 27.5551 9.21312 27.9595 10.6487C28.364 12.0842 28.3457 13.606 27.9068 15.0313C27.4678 16.4567 26.6269 17.7252 25.485 18.6845C24.343 19.6438 22.9485 20.2533 21.4688 20.4397V31.156C21.4688 31.4129 21.3667 31.6594 21.185 31.841C21.0033 32.0227 20.7569 32.1248 20.5 32.1248C20.2431 32.1248 19.9967 32.0227 19.815 31.841C19.6333 31.6594 19.5313 31.4129 19.5313 31.156V20.4416C17.6576 20.2056 15.9346 19.2936 14.686 17.8769C13.4373 16.4601 12.7489 14.6363 12.75 12.7478V12.7498Z" fill="#BABABA"/>
</svg>
