<svg width="41" height="41" viewBox="0 0 41 41" fill="none" xmlns="http://www.w3.org/2000/svg">
<path d="M37.8366 16.4961H27.5866C27.4104 16.4961 27.2663 16.6402 27.2663 16.8164V18.7383C27.2663 18.9145 27.4104 19.0586 27.5866 19.0586H37.8366C38.0128 19.0586 38.1569 18.9145 38.1569 18.7383V16.8164C38.1569 16.6402 38.0128 16.4961 37.8366 16.4961ZM32.4714 21.9414H27.5866C27.4104 21.9414 27.2663 22.0855 27.2663 22.2617V24.1836C27.2663 24.3598 27.4104 24.5039 27.5866 24.5039H32.4714C32.6476 24.5039 32.7917 24.3598 32.7917 24.1836V22.2617C32.7917 22.0855 32.6476 21.9414 32.4714 21.9414ZM19.1104 12.9126H17.3767C17.1284 12.9126 16.9282 13.1128 16.9282 13.361V23.2907C16.9282 23.4349 16.9963 23.567 17.1124 23.6511L23.0742 27.9993C23.2744 28.1435 23.5547 28.1034 23.6988 27.9032L24.7278 26.4979V26.4938C24.872 26.2937 24.8279 26.0134 24.6277 25.8692L19.5548 22.2017V13.361C19.5588 13.1128 19.3546 12.9126 19.1104 12.9126Z" fill="#BABABA"/>
<path d="M32.223 26.9825H29.9087C29.6845 26.9825 29.4723 27.0986 29.3522 27.2908C28.8437 28.0956 28.2511 28.8403 27.5704 29.5209C26.3973 30.6941 25.032 31.615 23.5145 32.2556C21.9409 32.9203 20.2713 33.2566 18.5496 33.2566C16.824 33.2566 15.1543 32.9203 13.5848 32.2556C12.0673 31.615 10.702 30.6941 9.52884 29.5209C8.35569 28.3478 7.43479 26.9825 6.79417 25.465C6.12952 23.8955 5.79319 22.2258 5.79319 20.5001C5.79319 18.7745 6.12952 17.1088 6.79417 15.5353C7.43479 14.0178 8.35569 12.6525 9.52884 11.4793C10.702 10.3062 12.0673 9.3853 13.5848 8.74468C15.1543 8.08003 16.828 7.7437 18.5496 7.7437C20.2753 7.7437 21.9449 8.08003 23.5145 8.74468C25.032 9.3853 26.3973 10.3062 27.5704 11.4793C28.2511 12.16 28.8437 12.9047 29.3522 13.7095C29.4723 13.9017 29.6845 14.0178 29.9087 14.0178H32.223C32.4992 14.0178 32.6754 13.7295 32.5513 13.4853C29.9407 8.29224 24.6476 4.91694 18.7378 4.84888C10.0854 4.74077 2.89837 11.8237 2.88235 20.4681C2.86634 29.1286 9.88518 36.1554 18.5456 36.1554C24.5315 36.1554 29.9127 32.7681 32.5513 27.515C32.6754 27.2707 32.4952 26.9825 32.223 26.9825Z" fill="#BABABA"/>
</svg>
