<svg width="45" height="45" viewBox="0 0 45 45" fill="none" xmlns="http://www.w3.org/2000/svg">
<circle cx="22.5" cy="22.5" r="22.5" fill="url(#paint0_linear_566_3828)"/>
<path d="M29.9034 13.501H16.2216C14.6769 13.501 13.5 14.6779 13.5 16.2226V29.9041C13.5 31.4487 14.6769 32.6256 16.2216 32.6256H29.9034C31.4481 32.6256 32.625 31.4487 32.625 29.9041V16.2226C32.625 14.6779 31.4481 13.501 29.9034 13.501ZM23.0625 28.8007C26.2255 28.8007 28.8 26.2998 28.8 23.284C28.8 22.7691 28.7264 22.1806 28.5793 21.7393H30.1976V29.5363C30.1976 29.9041 29.9034 30.2718 29.462 30.2718H16.663C16.2952 30.2718 15.9274 29.9776 15.9274 29.5363V21.6657H17.6192C17.4721 22.1806 17.3986 22.6955 17.3986 23.2104C17.325 26.2998 19.8995 28.8007 23.0625 28.8007ZM23.0625 26.594C21.0029 26.594 19.3846 24.9758 19.3846 22.9898C19.3846 21.0037 21.0029 19.3855 23.0625 19.3855C25.1221 19.3855 26.7404 21.0037 26.7404 22.9898C26.7404 25.0493 25.1221 26.594 23.0625 26.594ZM30.124 18.7235C30.124 19.1648 29.7563 19.5326 29.3149 19.5326H27.2553C26.8139 19.5326 26.4462 19.1648 26.4462 18.7235V16.7375C26.4462 16.2961 26.8139 15.9283 27.2553 15.9283H29.3149C29.7563 15.9283 30.124 16.2961 30.124 16.7375V18.7235Z" fill="white"/>
<defs>
<linearGradient id="paint0_linear_566_3828" x1="9.5625" y1="39.9375" x2="39.375" y2="9" gradientUnits="userSpaceOnUse">
<stop stop-color="#EEA054"/>
<stop offset="0.502762" stop-color="#D64763"/>
<stop offset="1" stop-color="#B62A99"/>
</linearGradient>
</defs>
</svg>
