<svg width="54" height="55" viewBox="0 0 54 55" fill="none" xmlns="http://www.w3.org/2000/svg">
<path d="M43.9074 8.92529H41.378C41.0004 8.92529 40.7613 9.16445 40.7613 9.42871H40.7612V17.6084C40.7612 17.9482 41.1639 18.1244 41.5792 18.1244C41.9819 18.1244 42.3972 17.9483 42.3972 17.6084V14.6889H43.8068C45.4678 14.6889 46.764 13.896 46.764 11.8323V11.7569C46.764 9.69298 45.5056 8.92529 43.9074 8.92529ZM45.128 11.9582C45.128 12.9397 44.6246 13.4054 43.8067 13.4054H42.3972V10.36H43.8067C44.6246 10.36 45.128 10.8256 45.128 11.8072V11.9582Z" fill="#696A6B"/>
<path d="M11.9838 31.8112C13.3625 30.4376 15.1928 29.6815 17.1388 29.6815H18.9953V34.8037H16.6927C16.2022 34.8037 15.8045 35.2014 15.8045 35.6919C15.8045 36.1824 16.2022 36.5801 16.6927 36.5801H36.9346C37.6243 36.5801 38.1852 36.0193 38.1852 35.3296C38.1852 34.4971 37.7273 33.7293 36.992 33.3251C36.6765 33.1514 36.3652 32.9613 36.067 32.7598L35.9831 32.8841L36.067 32.7598L31.1841 29.4612C29.6774 28.4433 27.9195 27.9052 26.1012 27.9052H17.1389C14.7202 27.9052 12.4438 28.8457 10.7301 30.5527L10.7301 30.5528C9.8745 31.4053 8.89988 32.1182 7.83326 32.6721L7.83325 32.6721C7.14478 33.0296 6.7167 33.7338 6.7167 34.5092C6.7167 35.6513 7.64556 36.5801 8.78768 36.5801H11.8432C12.3337 36.5801 12.7315 36.1824 12.7315 35.6919C12.7315 35.2014 12.3337 34.8037 11.8432 34.8037H8.78768C8.62539 34.8037 8.49306 34.6714 8.49306 34.5091C8.49306 34.3992 8.55349 34.2996 8.6518 34.2486L8.65185 34.2486C9.87907 33.6114 11.0002 32.7912 11.9838 31.8112ZM11.9838 31.8112L11.8779 31.7049M11.9838 31.8112L11.8779 31.7049M11.8779 31.7049C10.9051 32.6742 9.79634 33.4853 8.58272 34.1155L18.9953 29.5315H17.1388C15.1531 29.5315 13.2848 30.3034 11.8779 31.7049ZM20.7719 34.8038V29.6816H26.1013C27.5641 29.6816 28.9777 30.1144 30.1898 30.9332L35.0727 34.2319C35.3715 34.4337 35.6816 34.6257 35.9966 34.8038H20.7719Z" fill="#696A6B" stroke="#696A6B" stroke-width="0.3"/>
<path d="M22.4477 37.5522H20.1674C19.7598 37.5522 19.4292 37.8828 19.4292 38.2905C19.4292 38.6982 19.7598 39.0287 20.1674 39.0287H22.4477C22.8554 39.0287 23.1859 38.6982 23.1859 38.2905C23.1859 37.8828 22.8554 37.5522 22.4477 37.5522Z" fill="#696A6B"/>
<mask id="path-4-outside-1_566_3737" maskUnits="userSpaceOnUse" x="-0.408691" y="3.71582" width="54" height="46" fill="black">
<rect fill="white" x="-0.408691" y="3.71582" width="54" height="46"/>
<path d="M51.7744 36.0198L51.5412 35.6328C50.6624 34.1745 49.2006 33.1476 47.5307 32.8154L44.1485 32.1428V22.7761H50.557C51.5726 22.7761 52.3987 21.95 52.3987 20.9345V6.55745C52.3987 5.5419 51.5725 4.71582 50.557 4.71582H36.18C35.1644 4.71582 34.3383 5.542 34.3383 6.55745V12.0112C34.3383 12.4189 34.6688 12.7494 35.0766 12.7494C35.4844 12.7494 35.8148 12.4189 35.8148 12.0112V6.55745C35.8148 6.35604 35.9787 6.19218 36.1801 6.19218H50.5572C50.7587 6.19218 50.9225 6.35604 50.9225 6.55745V20.9346C50.9225 21.136 50.7587 21.2999 50.5572 21.2999H36.18C35.9786 21.2999 35.8147 21.136 35.8147 20.9346V16.8104C35.8147 16.4027 35.4843 16.0722 35.0765 16.0722C34.6687 16.0722 34.3382 16.4027 34.3382 16.8104V20.9346C34.3382 21.9502 35.1644 22.7762 36.1799 22.7762L42.5988 22.7761V31.7855L40.7932 31.4757C39.441 31.2068 38.1227 30.3907 37.2487 29.8001L32.3659 26.5016C30.5081 25.2467 28.3413 24.5834 26.0995 24.5834H17.1373C14.1551 24.5834 11.3493 25.7425 9.23671 27.8472C7.89993 29.179 6.2172 30.0874 4.37041 30.4742L3.31053 30.6962C1.73489 31.0261 0.591309 32.4342 0.591309 34.044V41.1935C0.591309 42.0463 1.09483 42.8213 1.87425 43.1676L4.81462 44.4745C4.99245 45.4043 5.44041 46.2922 6.1588 47.0106C7.11352 47.9653 8.36762 48.4427 9.62182 48.4427C10.876 48.4427 12.13 47.9653 13.0848 47.0106C13.6989 46.3966 14.1143 45.6584 14.3334 44.8764H38.8502C39.0693 45.6584 39.4848 46.3966 40.0989 47.0106C41.0239 47.9356 42.2536 48.4451 43.5619 48.4451C44.87 48.4451 46.0999 47.9357 47.025 47.0106C47.639 46.3966 48.0544 45.6584 48.2735 44.8764H49.674C51.1833 44.8764 52.4113 43.6484 52.4113 42.139V38.31C52.4111 37.503 52.1909 36.7111 51.7744 36.0198ZM42.5988 22.7761H44.1485V32.1428L42.5988 31.7855V22.7761ZM12.0408 45.9667C11.3946 46.6128 10.5355 46.9687 9.62172 46.9687C8.70789 46.9687 7.84881 46.6128 7.20269 45.9667C6.16619 44.9302 5.93563 43.3889 6.5099 42.1272C6.51456 42.1171 6.51901 42.1068 6.52366 42.0967C6.54117 42.0593 6.5597 42.0222 6.57862 41.9854C6.58753 41.968 6.59643 41.9507 6.60575 41.9335C6.62285 41.9015 6.64066 41.8697 6.65888 41.8381C6.67143 41.8164 6.68429 41.7948 6.69734 41.7734C6.71424 41.7455 6.73135 41.7178 6.74916 41.6904C6.76525 41.6656 6.78185 41.6411 6.79865 41.6167C6.81525 41.5925 6.83175 41.5682 6.84895 41.5444C6.86869 41.5172 6.88924 41.4905 6.90988 41.4638C6.92598 41.4429 6.94166 41.4219 6.95826 41.4013C6.98255 41.3712 7.00796 41.3419 7.03326 41.3125C7.04773 41.2958 7.0616 41.2787 7.07638 41.2622C7.11403 41.2204 7.15279 41.1795 7.19267 41.1393C7.19611 41.1358 7.19924 41.1322 7.20269 41.1287C7.21028 41.1212 7.21827 41.1141 7.22596 41.1066C7.25977 41.0734 7.29378 41.0406 7.32849 41.0091C7.3375 41.0009 7.34701 40.9933 7.35612 40.9852C7.39073 40.9546 7.42555 40.9241 7.46118 40.8951C7.46452 40.8923 7.46806 40.8898 7.4714 40.8871C8.72267 39.8744 10.5274 39.8757 11.7771 40.8911L11.7816 40.8945C11.8197 40.9256 11.8571 40.9582 11.8942 40.9912C11.9009 40.9971 11.9078 41.0026 11.9143 41.0086C11.9573 41.0474 11.9994 41.0873 12.0407 41.1286C12.0852 41.1732 12.1281 41.219 12.1698 41.2655C12.1881 41.2859 12.2054 41.3069 12.2231 41.3276C12.2448 41.3529 12.2666 41.3783 12.2874 41.4041C12.3108 41.4332 12.3334 41.4627 12.3556 41.4923C12.3682 41.5088 12.3806 41.5254 12.3928 41.5421C12.4198 41.5793 12.4461 41.617 12.4715 41.6551C12.4759 41.6616 12.4801 41.6682 12.4844 41.6747C13.3527 43.001 13.205 44.8024 12.0408 45.9667ZM45.9808 45.9667C45.3346 46.6128 44.4755 46.9687 43.5617 46.9687C42.6478 46.9687 41.7889 46.6128 41.1427 45.9667C39.9783 44.8024 39.8305 43.0007 40.699 41.6745C40.7032 41.6681 40.7073 41.6617 40.7116 41.6554C40.737 41.6172 40.7634 41.5794 40.7905 41.542C40.8026 41.5254 40.8149 41.509 40.8274 41.4927C40.8497 41.4629 40.8724 41.4333 40.896 41.404C40.9167 41.3784 40.9382 41.3533 40.9597 41.3282C40.9777 41.3073 40.9952 41.286 41.0137 41.2655C41.0554 41.219 41.0983 41.1733 41.1428 41.1287C41.789 40.4826 42.6479 40.1268 43.5618 40.1268C44.4756 40.1268 45.3347 40.4826 45.9808 41.1287C46.0253 41.1733 46.0682 41.2191 46.1099 41.2656C46.1284 41.286 46.1457 41.3071 46.1635 41.3279C46.1851 41.3531 46.2068 41.3784 46.2276 41.4041C46.251 41.4333 46.2736 41.4628 46.296 41.4925C46.3084 41.509 46.3209 41.5255 46.333 41.5422C46.36 41.5795 46.3865 41.6171 46.4118 41.6552C46.4161 41.6617 46.4204 41.6682 46.4246 41.6747C47.2928 43.0009 47.145 44.8025 45.9808 45.9667ZM50.935 42.139C50.935 42.8343 50.3691 43.4 49.6738 43.4H48.4584C48.4295 42.3293 48.0516 41.3078 47.3714 40.4703C47.3669 40.4646 47.3625 40.4587 47.3579 40.4531C47.3158 40.4017 47.2721 40.3515 47.2278 40.3015C47.2165 40.2887 47.2058 40.2755 47.1943 40.2628C47.1474 40.2111 47.0988 40.1604 47.0494 40.1104C47.041 40.1019 47.0333 40.093 47.0248 40.0846C46.3888 39.4487 45.6088 39.0091 44.7583 38.7966C44.3717 38.6999 43.9706 38.6502 43.5617 38.6502C43.2347 38.6502 42.9125 38.6821 42.5988 38.7442C41.6576 38.9309 40.7924 39.3909 40.0986 40.0846C40.0903 40.0929 40.0828 40.1016 40.0746 40.11C40.025 40.1603 39.9762 40.2111 39.9291 40.263C39.918 40.2752 39.9077 40.288 39.8967 40.3003C39.852 40.3507 39.8079 40.4016 39.7655 40.4534C39.7612 40.4585 39.7573 40.4639 39.753 40.4692C39.0724 41.3068 38.694 42.3289 38.665 43.4001H14.5184C14.4893 42.3276 14.1102 41.3042 13.4278 40.4659C13.4247 40.462 13.4217 40.458 13.4185 40.4541C13.374 40.3996 13.3277 40.3463 13.2807 40.2935C13.272 40.2837 13.2639 40.2737 13.2551 40.264C13.1999 40.2032 13.1432 40.1433 13.0846 40.0847C12.846 39.846 12.5885 39.6371 12.3172 39.4581C11.5028 38.921 10.5623 38.6525 9.62172 38.6525C8.36762 38.6525 7.11342 39.1299 6.1587 40.0847C6.10415 40.1392 6.05142 40.1952 5.9998 40.2519C5.98452 40.2687 5.96984 40.2858 5.95476 40.3027C5.91832 40.3439 5.8825 40.3855 5.84758 40.4276C5.83209 40.4463 5.81661 40.4651 5.80143 40.4841C5.76529 40.5292 5.73007 40.5747 5.69566 40.6208C5.68493 40.6351 5.6739 40.6492 5.66348 40.6637C5.57097 40.7903 5.48514 40.9209 5.40579 41.0548C5.40357 41.0585 5.40144 41.0623 5.39922 41.0661C5.36045 41.132 5.32331 41.1988 5.28778 41.2663C5.28677 41.2682 5.28576 41.2702 5.28464 41.2722C5.02727 41.7619 4.8542 42.2917 4.77485 42.8411L2.47403 41.8185C2.22728 41.7088 2.06787 41.4634 2.06787 41.1935V34.044C2.06787 33.129 2.71794 32.3287 3.61356 32.141L4.67343 31.9191C6.80088 31.4735 8.73926 30.427 10.2791 28.893C12.113 27.0658 14.5487 26.0596 17.1376 26.0596H26.0998C28.046 26.0596 29.927 26.6355 31.5397 27.7248L36.4225 31.0234C37.4023 31.6854 38.8916 32.6026 40.5054 32.9236L47.243 34.2634C48.5063 34.5147 49.612 35.2915 50.2769 36.3947L50.5101 36.7818C50.7881 37.243 50.935 37.7715 50.935 38.31V42.139Z"/>
<path d="M44.1485 32.1428V22.7761H42.5988V31.7855L44.1485 32.1428Z"/>
</mask>
<path d="M51.7744 36.0198L51.5412 35.6328C50.6624 34.1745 49.2006 33.1476 47.5307 32.8154L44.1485 32.1428V22.7761H50.557C51.5726 22.7761 52.3987 21.95 52.3987 20.9345V6.55745C52.3987 5.5419 51.5725 4.71582 50.557 4.71582H36.18C35.1644 4.71582 34.3383 5.542 34.3383 6.55745V12.0112C34.3383 12.4189 34.6688 12.7494 35.0766 12.7494C35.4844 12.7494 35.8148 12.4189 35.8148 12.0112V6.55745C35.8148 6.35604 35.9787 6.19218 36.1801 6.19218H50.5572C50.7587 6.19218 50.9225 6.35604 50.9225 6.55745V20.9346C50.9225 21.136 50.7587 21.2999 50.5572 21.2999H36.18C35.9786 21.2999 35.8147 21.136 35.8147 20.9346V16.8104C35.8147 16.4027 35.4843 16.0722 35.0765 16.0722C34.6687 16.0722 34.3382 16.4027 34.3382 16.8104V20.9346C34.3382 21.9502 35.1644 22.7762 36.1799 22.7762L42.5988 22.7761V31.7855L40.7932 31.4757C39.441 31.2068 38.1227 30.3907 37.2487 29.8001L32.3659 26.5016C30.5081 25.2467 28.3413 24.5834 26.0995 24.5834H17.1373C14.1551 24.5834 11.3493 25.7425 9.23671 27.8472C7.89993 29.179 6.2172 30.0874 4.37041 30.4742L3.31053 30.6962C1.73489 31.0261 0.591309 32.4342 0.591309 34.044V41.1935C0.591309 42.0463 1.09483 42.8213 1.87425 43.1676L4.81462 44.4745C4.99245 45.4043 5.44041 46.2922 6.1588 47.0106C7.11352 47.9653 8.36762 48.4427 9.62182 48.4427C10.876 48.4427 12.13 47.9653 13.0848 47.0106C13.6989 46.3966 14.1143 45.6584 14.3334 44.8764H38.8502C39.0693 45.6584 39.4848 46.3966 40.0989 47.0106C41.0239 47.9356 42.2536 48.4451 43.5619 48.4451C44.87 48.4451 46.0999 47.9357 47.025 47.0106C47.639 46.3966 48.0544 45.6584 48.2735 44.8764H49.674C51.1833 44.8764 52.4113 43.6484 52.4113 42.139V38.31C52.4111 37.503 52.1909 36.7111 51.7744 36.0198ZM42.5988 22.7761H44.1485V32.1428L42.5988 31.7855V22.7761ZM12.0408 45.9667C11.3946 46.6128 10.5355 46.9687 9.62172 46.9687C8.70789 46.9687 7.84881 46.6128 7.20269 45.9667C6.16619 44.9302 5.93563 43.3889 6.5099 42.1272C6.51456 42.1171 6.51901 42.1068 6.52366 42.0967C6.54117 42.0593 6.5597 42.0222 6.57862 41.9854C6.58753 41.968 6.59643 41.9507 6.60575 41.9335C6.62285 41.9015 6.64066 41.8697 6.65888 41.8381C6.67143 41.8164 6.68429 41.7948 6.69734 41.7734C6.71424 41.7455 6.73135 41.7178 6.74916 41.6904C6.76525 41.6656 6.78185 41.6411 6.79865 41.6167C6.81525 41.5925 6.83175 41.5682 6.84895 41.5444C6.86869 41.5172 6.88924 41.4905 6.90988 41.4638C6.92598 41.4429 6.94166 41.4219 6.95826 41.4013C6.98255 41.3712 7.00796 41.3419 7.03326 41.3125C7.04773 41.2958 7.0616 41.2787 7.07638 41.2622C7.11403 41.2204 7.15279 41.1795 7.19267 41.1393C7.19611 41.1358 7.19924 41.1322 7.20269 41.1287C7.21028 41.1212 7.21827 41.1141 7.22596 41.1066C7.25977 41.0734 7.29378 41.0406 7.32849 41.0091C7.3375 41.0009 7.34701 40.9933 7.35612 40.9852C7.39073 40.9546 7.42555 40.9241 7.46118 40.8951C7.46452 40.8923 7.46806 40.8898 7.4714 40.8871C8.72267 39.8744 10.5274 39.8757 11.7771 40.8911L11.7816 40.8945C11.8197 40.9256 11.8571 40.9582 11.8942 40.9912C11.9009 40.9971 11.9078 41.0026 11.9143 41.0086C11.9573 41.0474 11.9994 41.0873 12.0407 41.1286C12.0852 41.1732 12.1281 41.219 12.1698 41.2655C12.1881 41.2859 12.2054 41.3069 12.2231 41.3276C12.2448 41.3529 12.2666 41.3783 12.2874 41.4041C12.3108 41.4332 12.3334 41.4627 12.3556 41.4923C12.3682 41.5088 12.3806 41.5254 12.3928 41.5421C12.4198 41.5793 12.4461 41.617 12.4715 41.6551C12.4759 41.6616 12.4801 41.6682 12.4844 41.6747C13.3527 43.001 13.205 44.8024 12.0408 45.9667ZM45.9808 45.9667C45.3346 46.6128 44.4755 46.9687 43.5617 46.9687C42.6478 46.9687 41.7889 46.6128 41.1427 45.9667C39.9783 44.8024 39.8305 43.0007 40.699 41.6745C40.7032 41.6681 40.7073 41.6617 40.7116 41.6554C40.737 41.6172 40.7634 41.5794 40.7905 41.542C40.8026 41.5254 40.8149 41.509 40.8274 41.4927C40.8497 41.4629 40.8724 41.4333 40.896 41.404C40.9167 41.3784 40.9382 41.3533 40.9597 41.3282C40.9777 41.3073 40.9952 41.286 41.0137 41.2655C41.0554 41.219 41.0983 41.1733 41.1428 41.1287C41.789 40.4826 42.6479 40.1268 43.5618 40.1268C44.4756 40.1268 45.3347 40.4826 45.9808 41.1287C46.0253 41.1733 46.0682 41.2191 46.1099 41.2656C46.1284 41.286 46.1457 41.3071 46.1635 41.3279C46.1851 41.3531 46.2068 41.3784 46.2276 41.4041C46.251 41.4333 46.2736 41.4628 46.296 41.4925C46.3084 41.509 46.3209 41.5255 46.333 41.5422C46.36 41.5795 46.3865 41.6171 46.4118 41.6552C46.4161 41.6617 46.4204 41.6682 46.4246 41.6747C47.2928 43.0009 47.145 44.8025 45.9808 45.9667ZM50.935 42.139C50.935 42.8343 50.3691 43.4 49.6738 43.4H48.4584C48.4295 42.3293 48.0516 41.3078 47.3714 40.4703C47.3669 40.4646 47.3625 40.4587 47.3579 40.4531C47.3158 40.4017 47.2721 40.3515 47.2278 40.3015C47.2165 40.2887 47.2058 40.2755 47.1943 40.2628C47.1474 40.2111 47.0988 40.1604 47.0494 40.1104C47.041 40.1019 47.0333 40.093 47.0248 40.0846C46.3888 39.4487 45.6088 39.0091 44.7583 38.7966C44.3717 38.6999 43.9706 38.6502 43.5617 38.6502C43.2347 38.6502 42.9125 38.6821 42.5988 38.7442C41.6576 38.9309 40.7924 39.3909 40.0986 40.0846C40.0903 40.0929 40.0828 40.1016 40.0746 40.11C40.025 40.1603 39.9762 40.2111 39.9291 40.263C39.918 40.2752 39.9077 40.288 39.8967 40.3003C39.852 40.3507 39.8079 40.4016 39.7655 40.4534C39.7612 40.4585 39.7573 40.4639 39.753 40.4692C39.0724 41.3068 38.694 42.3289 38.665 43.4001H14.5184C14.4893 42.3276 14.1102 41.3042 13.4278 40.4659C13.4247 40.462 13.4217 40.458 13.4185 40.4541C13.374 40.3996 13.3277 40.3463 13.2807 40.2935C13.272 40.2837 13.2639 40.2737 13.2551 40.264C13.1999 40.2032 13.1432 40.1433 13.0846 40.0847C12.846 39.846 12.5885 39.6371 12.3172 39.4581C11.5028 38.921 10.5623 38.6525 9.62172 38.6525C8.36762 38.6525 7.11342 39.1299 6.1587 40.0847C6.10415 40.1392 6.05142 40.1952 5.9998 40.2519C5.98452 40.2687 5.96984 40.2858 5.95476 40.3027C5.91832 40.3439 5.8825 40.3855 5.84758 40.4276C5.83209 40.4463 5.81661 40.4651 5.80143 40.4841C5.76529 40.5292 5.73007 40.5747 5.69566 40.6208C5.68493 40.6351 5.6739 40.6492 5.66348 40.6637C5.57097 40.7903 5.48514 40.9209 5.40579 41.0548C5.40357 41.0585 5.40144 41.0623 5.39922 41.0661C5.36045 41.132 5.32331 41.1988 5.28778 41.2663C5.28677 41.2682 5.28576 41.2702 5.28464 41.2722C5.02727 41.7619 4.8542 42.2917 4.77485 42.8411L2.47403 41.8185C2.22728 41.7088 2.06787 41.4634 2.06787 41.1935V34.044C2.06787 33.129 2.71794 32.3287 3.61356 32.141L4.67343 31.9191C6.80088 31.4735 8.73926 30.427 10.2791 28.893C12.113 27.0658 14.5487 26.0596 17.1376 26.0596H26.0998C28.046 26.0596 29.927 26.6355 31.5397 27.7248L36.4225 31.0234C37.4023 31.6854 38.8916 32.6026 40.5054 32.9236L47.243 34.2634C48.5063 34.5147 49.612 35.2915 50.2769 36.3947L50.5101 36.7818C50.7881 37.243 50.935 37.7715 50.935 38.31V42.139Z" fill="#696A6B"/>
<path d="M44.1485 32.1428V22.7761H42.5988V31.7855L44.1485 32.1428Z" fill="#696A6B"/>
<path d="M44.1485 32.1428L44.0923 32.3864L44.3985 32.457V32.1428H44.1485ZM44.1485 22.7761H44.3985V22.5261H44.1485V22.7761ZM42.5988 22.7761V22.5261H42.3488V22.7761H42.5988ZM42.5988 31.7855H42.3488V31.9844L42.5426 32.0291L42.5988 31.7855ZM44.3985 32.1428V22.7761H43.8985V32.1428H44.3985ZM42.3488 22.7761V31.7855H42.8488V22.7761H42.3488ZM42.5988 23.0261H44.1485V22.5261H42.5988V23.0261ZM44.2046 31.8992L42.6549 31.5419L42.5426 32.0291L44.0923 32.3864L44.2046 31.8992ZM51.7744 36.0198L52.2027 35.7618L52.2027 35.7618L51.7744 36.0198ZM51.5412 35.6328L51.9695 35.3748L51.9695 35.3747L51.5412 35.6328ZM47.5307 32.8154L47.6283 32.325L47.6283 32.325L47.5307 32.8154ZM36.1799 22.7762V23.2762H36.1799L36.1799 22.7762ZM40.7932 31.4757L40.6956 31.9663L40.7086 31.9685L40.7932 31.4757ZM37.2487 29.8001L37.5286 29.3858L37.5286 29.3858L37.2487 29.8001ZM32.3659 26.5016L32.6457 26.0873L32.6457 26.0873L32.3659 26.5016ZM9.23671 27.8472L8.88382 27.493L8.88382 27.493L9.23671 27.8472ZM4.37041 30.4742L4.47289 30.9636L4.47291 30.9636L4.37041 30.4742ZM3.31053 30.6962L3.41301 31.1855L3.41302 31.1855L3.31053 30.6962ZM1.87425 43.1676L2.07732 42.7107L2.07729 42.7107L1.87425 43.1676ZM4.81462 44.4745L5.30572 44.3805L5.25661 44.1237L5.01769 44.0176L4.81462 44.4745ZM6.1588 47.0106L5.80525 47.3642L6.1588 47.0106ZM13.0848 47.0106L13.4384 47.3642L13.4384 47.3642L13.0848 47.0106ZM14.3334 44.8764V44.3764H13.9542L13.8519 44.7415L14.3334 44.8764ZM38.8502 44.8764L39.3317 44.7415L39.2294 44.3764H38.8502V44.8764ZM40.0989 47.0106L39.7453 47.3642L39.7453 47.3642L40.0989 47.0106ZM47.025 47.0106L46.6714 46.657L47.025 47.0106ZM48.2735 44.8764V44.3764H47.8944L47.7921 44.7415L48.2735 44.8764ZM52.4113 38.31H52.9113V38.3099L52.4113 38.31ZM12.0408 45.9667L12.3943 46.3203L12.3943 46.3203L12.0408 45.9667ZM7.20269 45.9667L7.55624 45.6132L7.20269 45.9667ZM6.5099 42.1272L6.05565 41.9182L6.05482 41.9201L6.5099 42.1272ZM6.52366 42.0967L6.07072 41.8849L6.06942 41.8878L6.52366 42.0967ZM6.57862 41.9854L7.02337 42.2139L7.02375 42.2131L6.57862 41.9854ZM6.60575 41.9335L7.04549 42.1714L7.04665 42.1693L6.60575 41.9335ZM6.65888 41.8381L7.09197 42.088L7.09201 42.0879L6.65888 41.8381ZM6.69734 41.7734L7.12448 42.0333L7.12471 42.0329L6.69734 41.7734ZM6.74916 41.6904L7.16849 41.9627L7.16858 41.9626L6.74916 41.6904ZM6.79865 41.6167L7.21043 41.9003L7.21093 41.8996L6.79865 41.6167ZM6.84895 41.5444L6.44413 41.251L6.44384 41.2514L6.84895 41.5444ZM6.90988 41.4638L7.30553 41.7695L7.3057 41.7693L6.90988 41.4638ZM6.95826 41.4013L6.56937 41.087L6.56933 41.0871L6.95826 41.4013ZM7.03326 41.3125L6.65541 40.9851L6.65455 40.9861L7.03326 41.3125ZM7.07638 41.2622L6.70486 40.9276L6.70393 40.9286L7.07638 41.2622ZM7.19267 41.1393L6.83911 40.7857L6.83777 40.7871L7.19267 41.1393ZM7.20269 41.1287L7.55624 41.4823L7.20269 41.1287ZM7.22596 41.1066L7.57478 41.4648L7.5763 41.4633L7.22596 41.1066ZM7.32849 41.0091L7.66434 41.3795L7.66503 41.3789L7.32849 41.0091ZM7.35612 40.9852L7.02455 40.611L7.02394 40.6115L7.35612 40.9852ZM7.46118 40.8951L7.77714 41.2826L7.7778 41.282L7.46118 40.8951ZM7.4714 40.8871L7.15686 40.4984L7.15478 40.5001L7.4714 40.8871ZM11.7771 40.8911L11.4617 41.2793L11.4714 41.2868L11.7771 40.8911ZM11.7816 40.8945L12.0974 40.5067L12.0872 40.4988L11.7816 40.8945ZM11.8942 40.9912L11.5621 41.365L11.5641 41.3668L11.8942 40.9912ZM11.9143 41.0086L11.5783 41.3788L11.5792 41.3796L11.9143 41.0086ZM12.0407 41.1286L12.3942 40.7751L12.0407 41.1286ZM12.1698 41.2655L12.5422 40.9318L12.5419 40.9315L12.1698 41.2655ZM12.2231 41.3276L11.8429 41.6523L11.8433 41.6528L12.2231 41.3276ZM12.2874 41.4041L12.6769 41.0906L12.6763 41.0899L12.2874 41.4041ZM12.3556 41.4923L11.9563 41.7932L11.9577 41.795L12.3556 41.4923ZM12.3928 41.5421L12.7975 41.2485L12.7971 41.248L12.3928 41.5421ZM12.4715 41.6551L12.0553 41.9322L12.0565 41.934L12.4715 41.6551ZM12.4844 41.6747L12.9027 41.4008L12.9024 41.4003L12.4844 41.6747ZM45.9808 45.9667L46.3343 46.3203L46.3344 46.3203L45.9808 45.9667ZM41.1427 45.9667L41.4963 45.6132L41.4963 45.6131L41.1427 45.9667ZM40.699 41.6745L41.1173 41.9484L41.1181 41.9472L40.699 41.6745ZM40.7116 41.6554L41.1256 41.9359L41.1281 41.932L40.7116 41.6554ZM40.7905 41.542L40.3858 41.2483L40.3856 41.2487L40.7905 41.542ZM40.8274 41.4927L41.2247 41.7962L41.227 41.7931L40.8274 41.4927ZM40.896 41.404L40.5075 41.0893L40.5067 41.0902L40.896 41.404ZM40.9597 41.3282L41.3391 41.654L41.3398 41.6532L40.9597 41.3282ZM41.0137 41.2655L41.3851 41.6003L41.3858 41.5995L41.0137 41.2655ZM41.1428 41.1287L40.7893 40.7752L41.1428 41.1287ZM45.9808 41.1287L46.3344 40.7752L45.9808 41.1287ZM46.1099 41.2656L45.7379 41.5996L45.7385 41.6003L46.1099 41.2656ZM46.1635 41.3279L45.7833 41.6527L45.7843 41.6538L46.1635 41.3279ZM46.2276 41.4041L46.6169 41.0905L46.6166 41.0901L46.2276 41.4041ZM46.296 41.4925L45.8968 41.7936L45.8969 41.7937L46.296 41.4925ZM46.333 41.5422L46.7381 41.2491L46.7374 41.2481L46.333 41.5422ZM46.4118 41.6552L45.995 41.9316L45.9967 41.9341L46.4118 41.6552ZM46.4246 41.6747L46.8429 41.4008L46.8426 41.4003L46.4246 41.6747ZM48.4584 43.4L47.9586 43.4135L47.9718 43.9H48.4584V43.4ZM47.3714 40.4703L46.9817 40.7835L46.9833 40.7855L47.3714 40.4703ZM47.3579 40.4531L46.9713 40.7702L46.9715 40.7704L47.3579 40.4531ZM47.2278 40.3015L47.6019 39.9697L47.6015 39.9693L47.2278 40.3015ZM47.1943 40.2628L47.5666 39.929L47.5645 39.9267L47.1943 40.2628ZM47.0494 40.1104L47.4051 39.759L47.405 39.7589L47.0494 40.1104ZM47.0248 40.0846L46.6713 40.4381L46.6734 40.4402L47.0248 40.0846ZM44.7583 38.7966L44.637 39.2816L44.6371 39.2816L44.7583 38.7966ZM42.5988 38.7442L42.5016 38.2538L42.5015 38.2538L42.5988 38.7442ZM40.0986 40.0846L39.7451 39.731L39.7451 39.731L40.0986 40.0846ZM40.0746 40.11L40.4306 40.461L40.4324 40.4592L40.0746 40.11ZM39.9291 40.263L40.2991 40.5993L40.2996 40.5988L39.9291 40.263ZM39.8967 40.3003L40.2707 40.6322L40.2711 40.6318L39.8967 40.3003ZM39.7655 40.4534L40.1514 40.7712L40.1524 40.77L39.7655 40.4534ZM39.753 40.4692L40.1411 40.7845L40.142 40.7833L39.753 40.4692ZM38.665 43.4001V43.9001H39.1516L39.1648 43.4137L38.665 43.4001ZM14.5184 43.4001L14.0186 43.4137L14.0317 43.9001H14.5184V43.4001ZM13.4278 40.4659L13.0364 40.7771L13.0401 40.7816L13.4278 40.4659ZM13.4185 40.4541L13.81 40.1429L13.8056 40.1375L13.4185 40.4541ZM13.2807 40.2935L13.654 39.9609L13.6531 39.9598L13.2807 40.2935ZM13.2551 40.264L13.6256 39.9282L13.6255 39.9281L13.2551 40.264ZM13.0846 40.0847L12.7311 40.4382L13.0846 40.0847ZM12.3172 39.4581L12.5925 39.0407L12.5924 39.0407L12.3172 39.4581ZM6.1587 40.0847L5.80515 39.7311L6.1587 40.0847ZM5.9998 40.2519L5.63013 39.9152L5.62993 39.9154L5.9998 40.2519ZM5.95476 40.3027L5.58167 39.9698L5.58024 39.9714L5.95476 40.3027ZM5.84758 40.4276L5.46271 40.1084L5.46227 40.1089L5.84758 40.4276ZM5.80143 40.4841L6.19143 40.797L6.19227 40.796L5.80143 40.4841ZM5.69566 40.6208L5.29513 40.3215L5.29498 40.3217L5.69566 40.6208ZM5.66348 40.6637L6.06721 40.9587L6.06919 40.9559L5.66348 40.6637ZM5.40579 41.0548L5.83556 41.3103L5.83594 41.3097L5.40579 41.0548ZM5.39922 41.0661L4.96944 40.8106L4.96827 40.8126L5.39922 41.0661ZM5.28778 41.2663L5.73024 41.4992L5.73026 41.4991L5.28778 41.2663ZM5.28464 41.2722L4.85193 41.0216L4.8468 41.0305L4.84204 41.0396L5.28464 41.2722ZM4.77485 42.8411L4.57177 43.298L5.17531 43.5663L5.26971 42.9126L4.77485 42.8411ZM2.47403 41.8185L2.27089 42.2754L2.27095 42.2754L2.47403 41.8185ZM3.61356 32.141L3.51107 31.6517L3.51103 31.6517L3.61356 32.141ZM4.67343 31.9191L4.77592 32.4085L4.77594 32.4085L4.67343 31.9191ZM10.2791 28.893L10.632 29.2472L10.632 29.2472L10.2791 28.893ZM31.5397 27.7248L31.8196 27.3105L31.8195 27.3105L31.5397 27.7248ZM36.4225 31.0234L36.7024 30.6091L36.7024 30.6091L36.4225 31.0234ZM40.5054 32.9236L40.4079 33.414L40.4079 33.414L40.5054 32.9236ZM47.243 34.2634L47.3406 33.773L47.3405 33.773L47.243 34.2634ZM50.2769 36.3947L50.7052 36.1367L50.7051 36.1366L50.2769 36.3947ZM50.5101 36.7818L50.0818 37.0398L50.0819 37.0399L50.5101 36.7818ZM52.2027 35.7618L51.9695 35.3748L51.1129 35.8908L51.3461 36.2779L52.2027 35.7618ZM51.9695 35.3747C51.018 33.7959 49.4362 32.6846 47.6283 32.325L47.4332 33.3058C48.9651 33.6105 50.3068 34.5531 51.113 35.8909L51.9695 35.3747ZM47.6283 32.325L44.246 31.6524L44.051 32.6332L47.4332 33.3058L47.6283 32.325ZM44.1485 23.2761H50.557V22.2761H44.1485V23.2761ZM50.557 23.2761C51.8487 23.2761 52.8987 22.2261 52.8987 20.9345H51.8987C51.8987 21.6738 51.2964 22.2761 50.557 22.2761V23.2761ZM52.8987 20.9345V6.55745H51.8987V20.9345H52.8987ZM52.8987 6.55745C52.8987 5.26574 51.8486 4.21582 50.557 4.21582V5.21582C51.2964 5.21582 51.8987 5.81806 51.8987 6.55745H52.8987ZM50.557 4.21582H36.18V5.21582H50.557V4.21582ZM36.18 4.21582C34.8883 4.21582 33.8383 5.26588 33.8383 6.55745H34.8383C34.8383 5.81813 35.4406 5.21582 36.18 5.21582V4.21582ZM33.8383 6.55745V12.0112H34.8383V6.55745H33.8383ZM33.8383 12.0112C33.8383 12.695 34.3926 13.2494 35.0766 13.2494V12.2494C34.945 12.2494 34.8383 12.1428 34.8383 12.0112H33.8383ZM35.0766 13.2494C35.7605 13.2494 36.3148 12.695 36.3148 12.0112H35.3148C35.3148 12.1428 35.2082 12.2494 35.0766 12.2494V13.2494ZM36.3148 12.0112V6.55745H35.3148V12.0112H36.3148ZM36.3148 6.55745C36.3148 6.63219 36.2548 6.69218 36.1801 6.69218V5.69218C35.7025 5.69218 35.3148 6.07989 35.3148 6.55745H36.3148ZM36.1801 6.69218H50.5572V5.69218H36.1801V6.69218ZM50.5572 6.69218C50.4825 6.69218 50.4225 6.63218 50.4225 6.55745H51.4225C51.4225 6.0799 51.0348 5.69218 50.5572 5.69218V6.69218ZM50.4225 6.55745V20.9346H51.4225V6.55745H50.4225ZM50.4225 20.9346C50.4225 20.8599 50.4825 20.7999 50.5572 20.7999V21.7999C51.0348 21.7999 51.4225 21.4122 51.4225 20.9346H50.4225ZM50.5572 20.7999H36.18V21.7999H50.5572V20.7999ZM36.18 20.7999C36.2547 20.7999 36.3147 20.8599 36.3147 20.9346H35.3147C35.3147 21.4122 35.7024 21.7999 36.18 21.7999V20.7999ZM36.3147 20.9346V16.8104H35.3147V20.9346H36.3147ZM36.3147 16.8104C36.3147 16.1266 35.7604 15.5722 35.0765 15.5722V16.5722C35.2081 16.5722 35.3147 16.6788 35.3147 16.8104H36.3147ZM35.0765 15.5722C34.3925 15.5722 33.8382 16.1266 33.8382 16.8104H34.8382C34.8382 16.6788 34.9449 16.5722 35.0765 16.5722V15.5722ZM33.8382 16.8104V20.9346H34.8382V16.8104H33.8382ZM33.8382 20.9346C33.8382 22.2263 34.8883 23.2762 36.1799 23.2762V22.2762C35.4406 22.2762 34.8382 21.674 34.8382 20.9346H33.8382ZM36.1799 23.2762L42.5988 23.2761L42.5987 22.2761L36.1799 22.2762L36.1799 23.2762ZM42.6833 31.2927L40.8777 30.9829L40.7086 31.9685L42.5142 32.2783L42.6833 31.2927ZM40.8907 30.9853C39.6458 30.7377 38.4001 29.9747 37.5286 29.3858L36.9687 30.2144C37.8453 30.8067 39.2362 31.6758 40.6956 31.9661L40.8907 30.9853ZM37.5286 29.3858L32.6457 26.0873L32.086 26.9159L36.9688 30.2145L37.5286 29.3858ZM32.6457 26.0873C30.7054 24.7765 28.4411 24.0834 26.0995 24.0834V25.0834C28.2416 25.0834 30.3109 25.7168 32.086 26.9159L32.6457 26.0873ZM26.0995 24.0834H17.1373V25.0834H26.0995V24.0834ZM17.1373 24.0834C14.0229 24.0834 11.0901 25.2949 8.88382 27.493L9.58961 28.2014C11.6085 26.1901 14.2874 25.0834 17.1373 25.0834V24.0834ZM8.88382 27.493C7.61564 28.7565 6.0199 29.6179 4.2679 29.9848L4.47291 30.9636C6.4145 30.5569 8.18421 29.6016 9.58961 28.2014L8.88382 27.493ZM4.26793 29.9848L3.20805 30.2068L3.41302 31.1855L4.47289 30.9636L4.26793 29.9848ZM3.20805 30.2068C1.40075 30.5852 0.0913086 32.1975 0.0913086 34.044H1.09131C1.09131 32.6708 2.06902 31.467 3.41301 31.1855L3.20805 30.2068ZM0.0913086 34.044V41.1935H1.09131V34.044H0.0913086ZM0.0913086 41.1935C0.0913086 42.2439 0.711171 43.1979 1.67122 43.6245L2.07729 42.7107C1.47849 42.4446 1.09131 41.8488 1.09131 41.1935H0.0913086ZM1.67118 43.6245L4.61155 44.9314L5.01769 44.0176L2.07732 42.7107L1.67118 43.6245ZM4.32352 44.5684C4.5195 45.5931 5.0136 46.5725 5.80525 47.3642L6.51235 46.657C5.86722 46.0119 5.4654 45.2154 5.30572 44.3805L4.32352 44.5684ZM5.80525 47.3642C6.8578 48.4167 8.24088 48.9427 9.62182 48.9427V47.9427C8.49436 47.9427 7.36924 47.5139 6.51235 46.657L5.80525 47.3642ZM9.62182 48.9427C11.0028 48.9427 12.3857 48.4167 13.4384 47.3642L12.7313 46.657C11.8743 47.5139 10.7493 47.9427 9.62182 47.9427V48.9427ZM13.4384 47.3642C14.1152 46.6874 14.5733 45.8731 14.8148 45.0113L13.8519 44.7415C13.6552 45.4437 13.2826 46.1057 12.7313 46.657L13.4384 47.3642ZM14.3334 45.3764H38.8502V44.3764H14.3334V45.3764ZM38.3688 45.0113C38.6103 45.8732 39.0685 46.6874 39.7453 47.3642L40.4524 46.657C39.9011 46.1057 39.5284 45.4437 39.3317 44.7415L38.3688 45.0113ZM39.7453 47.3642C40.7641 48.3829 42.121 48.9451 43.5619 48.9451V47.9451C42.3863 47.9451 41.2837 47.4883 40.4524 46.657L39.7453 47.3642ZM43.5619 48.9451C45.0026 48.9451 46.3597 48.383 47.3785 47.3642L46.6714 46.657C45.8401 47.4883 44.7374 47.9451 43.5619 47.9451V48.9451ZM47.3785 47.3642C48.0553 46.6874 48.5135 45.8731 48.755 45.0113L47.7921 44.7415C47.5953 45.4437 47.2227 46.1057 46.6714 46.657L47.3785 47.3642ZM48.2735 45.3764H49.674V44.3764H48.2735V45.3764ZM49.674 45.3764C51.4595 45.3764 52.9113 43.9245 52.9113 42.139H51.9113C51.9113 43.3722 50.9072 44.3764 49.674 44.3764V45.3764ZM52.9113 42.139V38.31H51.9113V42.139H52.9113ZM52.9113 38.3099C52.9111 37.412 52.6661 36.5309 52.2027 35.7618L51.3461 36.2779C51.7157 36.8913 51.9111 37.594 51.9113 38.3102L52.9113 38.3099ZM11.6872 45.6132C11.1348 46.1655 10.4029 46.4687 9.62172 46.4687V47.4687C10.6682 47.4687 11.6544 47.0602 12.3943 46.3203L11.6872 45.6132ZM9.62172 46.4687C8.8405 46.4687 8.1086 46.1655 7.55624 45.6132L6.84913 46.3203C7.58903 47.0602 8.57528 47.4687 9.62172 47.4687V46.4687ZM7.55624 45.6132C6.67242 44.7293 6.47398 43.4131 6.96498 42.3343L6.05482 41.9201C5.39728 43.3647 5.65996 45.1311 6.84913 46.3203L7.55624 45.6132ZM6.96414 42.3361C6.96771 42.3284 6.97102 42.321 6.97313 42.3163C6.97558 42.3108 6.97682 42.308 6.97791 42.3057L6.06942 41.8878C6.06585 41.8955 6.06254 41.9029 6.06044 41.9076C6.05799 41.9131 6.05674 41.9159 6.05565 41.9182L6.96414 42.3361ZM6.9766 42.3085C6.99051 42.2788 7.00598 42.2477 7.02336 42.2139L6.13388 41.7569C6.11341 41.7967 6.09184 41.8398 6.07073 41.8849L6.9766 42.3085ZM7.02375 42.2131C7.03255 42.1959 7.03917 42.1831 7.04548 42.1714L6.16601 41.6955C6.1537 41.7182 6.14251 41.74 6.1335 41.7577L7.02375 42.2131ZM7.04665 42.1693C7.06068 42.143 7.07579 42.116 7.09197 42.088L6.22579 41.5883C6.20554 41.6234 6.18502 41.6599 6.16484 41.6977L7.04665 42.1693ZM7.09201 42.0879C7.10216 42.0703 7.11293 42.0522 7.12448 42.0333L6.2702 41.5134C6.25564 41.5374 6.24071 41.5624 6.22576 41.5883L7.09201 42.0879ZM7.12471 42.0329C7.1406 42.0067 7.1547 41.9839 7.16849 41.9627L6.32983 41.418C6.30799 41.4517 6.28789 41.4843 6.26997 41.5138L7.12471 42.0329ZM7.16858 41.9626C7.18118 41.9431 7.19493 41.9228 7.21042 41.9003L6.38688 41.3331C6.36877 41.3593 6.34932 41.388 6.32974 41.4182L7.16858 41.9626ZM7.21093 41.8996C7.22954 41.8724 7.24149 41.8549 7.25407 41.8375L6.44384 41.2514C6.42201 41.2815 6.40096 41.3125 6.38638 41.3338L7.21093 41.8996ZM7.25378 41.8379C7.26852 41.8175 7.2848 41.7963 7.30553 41.7695L6.51424 41.158C6.49368 41.1846 6.46887 41.2168 6.44413 41.251L7.25378 41.8379ZM7.3057 41.7693C7.3288 41.7393 7.33509 41.7305 7.3472 41.7155L6.56933 41.0871C6.54824 41.1132 6.52316 41.1465 6.51407 41.1582L7.3057 41.7693ZM7.34716 41.7156C7.36542 41.693 7.38514 41.6701 7.41196 41.639L6.65455 40.9861C6.63077 41.0137 6.59968 41.0495 6.56937 41.087L7.34716 41.7156ZM7.4111 41.64C7.4439 41.6022 7.43357 41.6129 7.44882 41.5958L6.70393 40.9286C6.6915 40.9425 6.68049 40.9555 6.67286 40.9645C6.66394 40.9751 6.66001 40.9798 6.65541 40.9851L7.4111 41.64ZM7.44789 41.5969C7.48011 41.5611 7.51333 41.526 7.54756 41.4915L6.83777 40.7871C6.79225 40.8329 6.74794 40.8798 6.70486 40.9276L7.44789 41.5969ZM7.54622 41.4928C7.55135 41.4877 7.55558 41.4833 7.55847 41.4802C7.56117 41.4774 7.56358 41.4748 7.56414 41.4742C7.56522 41.473 7.56446 41.4738 7.56342 41.4749C7.56219 41.4762 7.55965 41.4789 7.55624 41.4823L6.84913 40.7752C6.844 40.7803 6.83977 40.7847 6.83689 40.7878C6.83418 40.7906 6.83177 40.7933 6.83121 40.7938C6.83013 40.795 6.83089 40.7942 6.83193 40.7931C6.83316 40.7918 6.8357 40.7891 6.83911 40.7857L7.54622 41.4928ZM7.55624 41.4823C7.55356 41.485 7.55206 41.4863 7.5558 41.4828C7.55694 41.4818 7.56013 41.4788 7.5629 41.4762C7.56599 41.4733 7.57013 41.4693 7.57477 41.4648L6.87716 40.7483C6.87786 40.7477 6.87858 40.747 6.87277 40.7524C6.86869 40.7562 6.8594 40.7649 6.84913 40.7752L7.55624 41.4823ZM7.5763 41.4633C7.6083 41.4319 7.63686 41.4044 7.66434 41.3795L6.99264 40.6387C6.95069 40.6767 6.91123 40.7149 6.87563 40.7498L7.5763 41.4633ZM7.66503 41.3789C7.66234 41.3814 7.66092 41.3825 7.66559 41.3785C7.66715 41.3772 7.67082 41.3741 7.67423 41.3712C7.67794 41.368 7.68283 41.3638 7.6883 41.3589L7.02394 40.6115C7.02482 40.6107 7.02549 40.6102 7.01894 40.6157C7.01433 40.6197 7.00365 40.6287 6.99195 40.6393L7.66503 41.3789ZM7.68769 41.3595C7.7214 41.3296 7.74986 41.3048 7.77714 41.2826L7.14522 40.5075C7.10124 40.5434 7.06007 40.5795 7.02455 40.611L7.68769 41.3595ZM7.7778 41.282C7.77447 41.2848 7.7719 41.2868 7.77069 41.2877C7.76966 41.2885 7.76889 41.2891 7.77002 41.2882C7.77061 41.2878 7.7731 41.2859 7.77584 41.2837C7.77876 41.2815 7.78302 41.2781 7.78802 41.274L7.15478 40.5001C7.15811 40.4974 7.16068 40.4953 7.16189 40.4944C7.16292 40.4936 7.16369 40.493 7.16256 40.4939C7.16197 40.4943 7.15948 40.4962 7.15674 40.4984C7.15382 40.5006 7.14956 40.504 7.14456 40.5081L7.7778 41.282ZM7.78594 41.2757C8.85358 40.4117 10.3955 40.4128 11.4618 41.2792L12.0924 40.503C10.6592 39.3385 8.59176 39.3372 7.15686 40.4984L7.78594 41.2757ZM11.4714 41.2868L11.4759 41.2902L12.0872 40.4988L12.0827 40.4954L11.4714 41.2868ZM11.4658 41.2823C11.4956 41.3065 11.5267 41.3335 11.5621 41.365L12.2263 40.6174C12.1874 40.5829 12.1438 40.5447 12.0973 40.5068L11.4658 41.2823ZM11.5641 41.3668C11.5683 41.3704 11.5719 41.3735 11.5746 41.3758C11.5767 41.3776 11.5798 41.3803 11.5804 41.3808C11.5833 41.3833 11.5814 41.3817 11.5783 41.3788L12.2504 40.6384C12.2407 40.6296 12.232 40.6222 12.2282 40.619C12.2254 40.6166 12.2252 40.6164 12.2239 40.6153C12.2232 40.6147 12.2235 40.6149 12.2243 40.6156L11.5641 41.3668ZM11.5792 41.3796C11.6159 41.4128 11.6519 41.447 11.6871 41.4822L12.3942 40.7751C12.3468 40.7277 12.2986 40.6819 12.2495 40.6376L11.5792 41.3796ZM11.6871 41.4822C11.7239 41.519 11.7606 41.5581 11.7977 41.5995L12.5419 40.9315C12.4956 40.8799 12.4464 40.8273 12.3942 40.7751L11.6871 41.4822ZM11.7974 41.5991C11.8105 41.6137 11.8181 41.6233 11.8429 41.6523L12.6034 41.003C12.5927 40.9905 12.5658 40.9581 12.5422 40.9318L11.7974 41.5991ZM11.8433 41.6528C11.8659 41.6792 11.8829 41.6991 11.8985 41.7183L12.6763 41.0899C12.6502 41.0576 12.6237 41.0267 12.603 41.0025L11.8433 41.6528ZM11.8979 41.7176C11.9162 41.7404 11.935 41.765 11.9563 41.7932L12.755 41.1914C12.7317 41.1605 12.7053 41.1259 12.6769 41.0906L11.8979 41.7176ZM11.9577 41.795C11.9689 41.8098 11.9791 41.8233 11.9884 41.8362L12.7971 41.248C12.7822 41.2274 12.7674 41.2078 12.7536 41.1896L11.9577 41.795ZM11.9881 41.8357C12.0117 41.8682 12.0341 41.9004 12.0553 41.9322L12.8877 41.378C12.8581 41.3336 12.8279 41.2904 12.7975 41.2485L11.9881 41.8357ZM12.0565 41.934C12.0588 41.9375 12.0595 41.9385 12.0663 41.949L12.9024 41.4003C12.9008 41.3979 12.8929 41.3857 12.8865 41.3763L12.0565 41.934ZM12.066 41.9486C12.8076 43.0812 12.6803 44.62 11.6872 45.6132L12.3943 46.3203C13.7296 44.9848 13.8979 42.9209 12.9027 41.4008L12.066 41.9486ZM45.6273 45.6131C45.0748 46.1655 44.3429 46.4687 43.5617 46.4687V47.4687C44.6081 47.4687 45.5943 47.0602 46.3343 46.3203L45.6273 45.6131ZM43.5617 46.4687C42.7805 46.4687 42.0487 46.1655 41.4963 45.6132L40.7892 46.3203C41.5291 47.0602 42.5152 47.4687 43.5617 47.4687V46.4687ZM41.4963 45.6131C40.503 44.6199 40.3757 43.0809 41.1173 41.9484L40.2807 41.4006C39.2854 42.9205 39.4536 44.9848 40.7892 46.3203L41.4963 45.6131ZM41.1181 41.9472C41.1227 41.9402 41.1243 41.9377 41.1255 41.9359L40.2976 41.375C40.2903 41.3858 40.2837 41.396 40.28 41.4017L41.1181 41.9472ZM41.1281 41.932C41.149 41.9005 41.1715 41.8684 41.1955 41.8353L40.3856 41.2487C40.3553 41.2905 40.3249 41.3339 40.295 41.3789L41.1281 41.932ZM41.1952 41.8356C41.2039 41.8237 41.2135 41.8109 41.2247 41.7962L40.43 41.1892C40.4163 41.2071 40.4012 41.2271 40.3858 41.2483L41.1952 41.8356ZM41.227 41.7931C41.248 41.7652 41.2668 41.7407 41.2852 41.7179L40.5067 41.0902C40.478 41.1259 40.4515 41.1607 40.4277 41.1923L41.227 41.7931ZM41.2845 41.7188C41.3002 41.6994 41.3174 41.6792 41.3391 41.654L40.5804 41.0025C40.5589 41.0275 40.5333 41.0575 40.5075 41.0893L41.2845 41.7188ZM41.3398 41.6532C41.3657 41.6229 41.3723 41.6144 41.3851 41.6003L40.6423 40.9307C40.6181 40.9576 40.5897 40.9917 40.5797 41.0033L41.3398 41.6532ZM41.3858 41.5995C41.4226 41.5584 41.4593 41.5194 41.4964 41.4823L40.7893 40.7752C40.7373 40.8272 40.6882 40.8796 40.6416 40.9315L41.3858 41.5995ZM41.4964 41.4823C42.0488 40.9299 42.7806 40.6268 43.5618 40.6268V39.6268C42.5153 39.6268 41.5292 40.0353 40.7893 40.7752L41.4964 41.4823ZM43.5618 40.6268C44.343 40.6268 45.0749 40.9299 45.6273 41.4823L46.3344 40.7752C45.5945 40.0353 44.6082 39.6268 43.5618 39.6268V40.6268ZM45.6273 41.4823C45.6641 41.5191 45.7007 41.5582 45.7379 41.5996L46.482 40.9316C46.4358 40.88 46.3866 40.8274 46.3344 40.7752L45.6273 41.4823ZM45.7385 41.6003C45.7512 41.6143 45.7572 41.6222 45.7833 41.6527L46.5436 41.0031C46.5341 40.992 46.5056 40.9577 46.4814 40.9309L45.7385 41.6003ZM45.7843 41.6538C45.8062 41.6794 45.8232 41.6992 45.8385 41.7182L46.6166 41.0901C46.5904 41.0576 46.5641 41.0269 46.5427 41.002L45.7843 41.6538ZM45.8382 41.7178C45.8566 41.7406 45.8753 41.7651 45.8968 41.7936L46.6952 41.1914C46.6719 41.1606 46.6455 41.1259 46.6169 41.0905L45.8382 41.7178ZM45.8969 41.7937C45.9098 41.8108 45.9195 41.8237 45.9286 41.8363L46.7374 41.2481C46.7222 41.2272 46.7071 41.2072 46.6951 41.1913L45.8969 41.7937ZM45.9279 41.8353C45.9525 41.8692 45.9747 41.9009 45.9951 41.9316L46.8285 41.3789C46.7982 41.3333 46.7676 41.2898 46.7381 41.2491L45.9279 41.8353ZM45.9967 41.9341C45.9993 41.9379 46.002 41.9421 46.0066 41.949L46.8426 41.4003C46.8387 41.3943 46.8329 41.3855 46.8268 41.3764L45.9967 41.9341ZM46.0063 41.9485C46.7477 43.0811 46.6204 44.6201 45.6273 45.6132L46.3344 46.3203C47.6697 44.9849 47.8379 42.9208 46.8429 41.4008L46.0063 41.9485ZM50.435 42.139C50.435 42.5581 50.0931 42.9 49.6738 42.9V43.9C50.6451 43.9 51.435 43.1106 51.435 42.139H50.435ZM49.6738 42.9H48.4584V43.9H49.6738V42.9ZM48.9583 43.3865C48.9263 42.2053 48.5089 41.0778 47.7596 40.1551L46.9833 40.7855C47.5942 41.5377 47.9327 42.4533 47.9586 43.4135L48.9583 43.3865ZM47.7612 40.1571C47.762 40.1581 47.7624 40.1586 47.7621 40.1582C47.7615 40.1575 47.7613 40.1571 47.7596 40.155C47.7572 40.1519 47.7513 40.1443 47.7442 40.1357L46.9715 40.7704C46.9691 40.7675 46.9677 40.7656 46.9698 40.7684C46.9704 40.7691 46.9723 40.7716 46.974 40.7738C46.9759 40.7762 46.9786 40.7796 46.9817 40.7835L47.7612 40.1571ZM47.7444 40.1359C47.6967 40.0778 47.6485 40.0222 47.6019 39.9697L46.8537 40.6332C46.8958 40.6807 46.9348 40.7257 46.9713 40.7702L47.7444 40.1359ZM47.6015 39.9693C47.5999 39.9674 47.5979 39.9651 47.5914 39.9575C47.5862 39.9514 47.5769 39.9405 47.5666 39.929L46.8221 40.5966C46.8232 40.5978 46.825 40.5999 46.8308 40.6067C46.8354 40.6121 46.8444 40.6227 46.8541 40.6336L47.6015 39.9693ZM47.5645 39.9267C47.5116 39.8684 47.4579 39.8125 47.4051 39.759L46.6937 40.4618C46.7396 40.5083 46.7831 40.5537 46.8242 40.5989L47.5645 39.9267ZM47.405 39.7589C47.4067 39.7607 47.4077 39.7616 47.4073 39.7612C47.4066 39.7605 47.4061 39.7599 47.4033 39.757C47.3994 39.7528 47.3889 39.7414 47.3762 39.7289L46.6734 40.4402C46.6709 40.4378 46.6693 40.4362 46.669 40.4358C46.6688 40.4356 46.6691 40.4359 46.6709 40.4379C46.6722 40.4393 46.6757 40.443 46.6791 40.4466C46.6828 40.4505 46.6878 40.4558 46.6937 40.4618L47.405 39.7589ZM47.3783 39.731C46.6786 39.0314 45.8184 38.5461 44.8795 38.3115L44.6371 39.2816C45.3991 39.4721 46.099 39.8659 46.6713 40.4381L47.3783 39.731ZM44.8796 38.3115C44.453 38.2048 44.0112 38.1502 43.5617 38.1502V39.1502C43.9299 39.1502 44.2903 39.1949 44.637 39.2816L44.8796 38.3115ZM43.5617 38.1502C43.2021 38.1502 42.8474 38.1853 42.5016 38.2538L42.6959 39.2347C42.9776 39.1789 43.2672 39.1502 43.5617 39.1502V38.1502ZM42.5015 38.2538C41.4628 38.4598 40.5086 38.9676 39.7451 39.731L40.4522 40.4381C41.0763 39.8141 41.8524 39.402 42.696 39.2347L42.5015 38.2538ZM39.7451 39.731C39.7338 39.7423 39.7242 39.7526 39.7202 39.7569C39.7145 39.7631 39.7155 39.762 39.7167 39.7607L40.4324 40.4592C40.4376 40.4539 40.442 40.4492 40.4453 40.4456C40.4484 40.4424 40.4516 40.4389 40.4529 40.4375C40.4568 40.4333 40.4552 40.4351 40.4522 40.4381L39.7451 39.731ZM39.7185 39.7589C39.666 39.8122 39.612 39.8683 39.5587 39.9272L40.2996 40.5988C40.3404 40.5538 40.3839 40.5083 40.4306 40.461L39.7185 39.7589ZM39.5592 39.9267C39.5478 39.9392 39.5379 39.9507 39.5324 39.9572C39.5254 39.9654 39.5239 39.9671 39.5224 39.9689L40.2711 40.6318C40.2805 40.6212 40.2896 40.6104 40.2933 40.606C40.2985 40.6 40.2993 40.5991 40.2991 40.5993L39.5592 39.9267ZM39.5228 39.9684C39.4759 40.0212 39.4269 40.0776 39.3785 40.1367L40.1524 40.77C40.1888 40.7255 40.2281 40.6802 40.2707 40.6322L39.5228 39.9684ZM39.3795 40.1355C39.3721 40.1445 39.366 40.1524 39.364 40.155C39.3632 40.156 39.3631 40.1562 39.3626 40.1568C39.3624 40.157 39.3623 40.1571 39.3622 40.1572C39.3622 40.1573 39.3622 40.1573 39.3622 40.1574C39.3621 40.1574 39.3621 40.1574 39.3621 40.1574C39.3621 40.1574 39.3622 40.1573 39.3623 40.1572C39.3623 40.1571 39.3625 40.157 39.3626 40.1568C39.3629 40.1564 39.3634 40.1558 39.364 40.155L40.142 40.7833C40.1453 40.7792 40.1482 40.7756 40.1502 40.773C40.152 40.7707 40.1539 40.7682 40.1545 40.7675C40.1554 40.7663 40.1553 40.7664 40.1549 40.7669C40.1544 40.7675 40.1532 40.7691 40.1514 40.7712L39.3795 40.1355ZM39.365 40.1538C38.615 41.0767 38.1972 42.2049 38.1652 43.3866L39.1648 43.4137C39.1909 42.4529 39.5297 41.5368 40.1411 40.7845L39.365 40.1538ZM38.665 42.9001H14.5184V43.9001H38.665V42.9001ZM15.0182 43.3866C14.9862 42.2034 14.5674 41.0739 13.8156 40.1503L13.0401 40.7816C13.653 41.5345 13.9925 42.4517 14.0186 43.4137L15.0182 43.3866ZM13.8193 40.1548C13.8193 40.1548 13.8191 40.1546 13.8187 40.1541C13.8183 40.1536 13.8178 40.153 13.817 40.152C13.8157 40.1502 13.8129 40.1467 13.8099 40.143L13.0271 40.7652C13.0271 40.7652 13.0273 40.7654 13.0276 40.7659C13.0281 40.7664 13.0285 40.767 13.0294 40.768C13.0307 40.7698 13.0334 40.7733 13.0364 40.777L13.8193 40.1548ZM13.8056 40.1375C13.7551 40.0758 13.7039 40.0168 13.654 39.9609L12.9073 40.626C12.9516 40.6757 12.9929 40.7234 13.0315 40.7706L13.8056 40.1375ZM13.6531 39.9598C13.6535 39.9603 13.6535 39.9603 13.6481 39.954C13.6442 39.9494 13.6356 39.9393 13.6256 39.9282L12.8846 40.5998C12.8834 40.5985 12.8832 40.5982 12.8877 40.6034C12.8908 40.6071 12.8991 40.6169 12.9083 40.6271L13.6531 39.9598ZM13.6255 39.9281C13.5656 39.8621 13.5033 39.7962 13.4382 39.7311L12.7311 40.4382C12.7832 40.4903 12.8342 40.5442 12.8847 40.5999L13.6255 39.9281ZM13.4382 39.7311C13.1755 39.4684 12.8918 39.2382 12.5925 39.0407L12.0418 39.8754C12.2852 40.036 12.5165 40.2236 12.7311 40.4382L13.4382 39.7311ZM12.5924 39.0407C11.6939 38.4481 10.6571 38.1525 9.62172 38.1525V39.1525C10.4674 39.1525 11.3117 39.394 12.0419 39.8755L12.5924 39.0407ZM9.62172 38.1525C8.24088 38.1525 6.85771 38.6785 5.80515 39.7311L6.51225 40.4382C7.36913 39.5813 8.49435 39.1525 9.62172 39.1525V38.1525ZM5.80515 39.7311C5.74369 39.7926 5.68545 39.8544 5.63013 39.9152L6.36947 40.5885C6.41738 40.5359 6.46461 40.4859 6.51225 40.4382L5.80515 39.7311ZM5.62993 39.9154C5.6149 39.9319 5.58584 39.9651 5.58167 39.9698L6.32785 40.6355C6.35384 40.6064 6.35413 40.6054 6.36967 40.5883L5.62993 39.9154ZM5.58024 39.9714C5.54093 40.0158 5.50157 40.0615 5.46271 40.1084L6.23245 40.7467C6.26342 40.7094 6.29572 40.6719 6.32928 40.6339L5.58024 39.9714ZM5.46227 40.1089C5.44646 40.128 5.42865 40.1497 5.41059 40.1723L6.19227 40.796C6.20457 40.7806 6.21773 40.7645 6.23288 40.7462L5.46227 40.1089ZM5.41142 40.1713C5.37157 40.2209 5.33285 40.271 5.29513 40.3215L6.09619 40.9201C6.1273 40.8784 6.15901 40.8374 6.19143 40.797L5.41142 40.1713ZM5.29498 40.3217C5.29114 40.3268 5.28819 40.3307 5.28108 40.34C5.27509 40.3479 5.2667 40.359 5.25776 40.3715L6.06919 40.9559C6.07764 40.9442 6.07473 40.9488 6.09634 40.9199L5.29498 40.3217ZM5.25975 40.3687C5.15756 40.5086 5.06294 40.6525 4.97565 40.7999L5.83594 41.3097C5.90734 41.1892 5.98438 41.072 6.0672 40.9586L5.25975 40.3687ZM4.97603 40.7992C4.97256 40.805 4.96952 40.8104 4.96876 40.8117C4.96734 40.8142 4.96821 40.8126 4.96945 40.8106L5.82898 41.3216C5.83245 41.3158 5.83549 41.3105 5.83625 41.3092C5.83767 41.3067 5.8368 41.3082 5.83556 41.3103L4.97603 40.7992ZM4.96827 40.8126C4.9254 40.8854 4.88442 40.9591 4.84531 41.0334L5.73026 41.4991C5.7622 41.4384 5.79551 41.3785 5.83017 41.3196L4.96827 40.8126ZM4.84532 41.0334C4.8443 41.0354 4.8434 41.0371 4.84322 41.0374C4.84282 41.0382 4.84316 41.0376 4.84356 41.0368C4.84436 41.0353 4.84748 41.0293 4.85193 41.0216L5.71736 41.5227C5.72292 41.5131 5.7271 41.5052 5.72894 41.5017C5.72987 41.4999 5.73071 41.4983 5.73082 41.4981C5.73115 41.4974 5.73076 41.4982 5.73024 41.4992L4.84532 41.0334ZM4.84204 41.0396C4.5585 41.5791 4.36755 42.1633 4.27998 42.7697L5.26971 42.9126C5.34084 42.42 5.49603 41.9447 5.72725 41.5048L4.84204 41.0396ZM4.97792 42.3842L2.6771 41.3616L2.27095 42.2754L4.57177 43.298L4.97792 42.3842ZM2.67717 41.3616C2.6109 41.3322 2.56787 41.2658 2.56787 41.1935H1.56787C1.56787 41.6611 1.84365 42.0854 2.27089 42.2754L2.67717 41.3616ZM2.56787 41.1935V34.044H1.56787V41.1935H2.56787ZM2.56787 34.044C2.56787 33.3656 3.05203 32.7695 3.71609 32.6304L3.51103 31.6517C2.38385 31.8878 1.56787 32.8923 1.56787 34.044H2.56787ZM3.71604 32.6304L4.77592 32.4085L4.57095 31.4297L3.51107 31.6517L3.71604 32.6304ZM4.77594 32.4085C6.99818 31.943 9.02355 30.8496 10.632 29.2472L9.92619 28.5388C8.45498 30.0045 6.60358 31.0039 4.57093 31.4297L4.77594 32.4085ZM10.632 29.2472C12.3722 27.5134 14.681 26.5596 17.1376 26.5596V25.5596C14.4165 25.5596 11.8538 26.6183 9.92618 28.5388L10.632 29.2472ZM17.1376 26.5596H26.0998V25.5596H17.1376V26.5596ZM26.0998 26.5596C27.9462 26.5596 29.7298 27.1056 31.2598 28.1392L31.8195 27.3105C30.1242 26.1653 28.1458 25.5596 26.0998 25.5596V26.5596ZM31.2598 28.1391L36.1426 31.4377L36.7024 30.6091L31.8196 27.3105L31.2598 28.1391ZM36.1426 31.4377C37.1291 32.1042 38.689 33.0721 40.4079 33.414L40.603 32.4332C39.0942 32.1331 37.6755 31.2666 36.7024 30.6091L36.1426 31.4377ZM40.4079 33.414L47.1455 34.7538L47.3405 33.773L40.6029 32.4332L40.4079 33.414ZM47.1454 34.7538C48.2707 34.9777 49.2564 35.6701 49.8486 36.6528L50.7051 36.1366C49.9676 34.9129 48.7419 34.0518 47.3406 33.773L47.1454 34.7538ZM49.8486 36.6528L50.0818 37.0398L50.9384 36.5237L50.7052 36.1367L49.8486 36.6528ZM50.0819 37.0399C50.3129 37.4231 50.435 37.8624 50.435 38.31H51.435C51.435 37.6806 51.2633 37.0628 50.9383 36.5236L50.0819 37.0399ZM50.435 38.31V42.139H51.435V38.31H50.435Z" fill="#696A6B" mask="url(#path-4-outside-1_566_3737)"/>
</svg>
